<?xml version="1.0" standalone="no"?>

<!DOCTYPE svg PUBLIC "-//W3C//DTD SVG 20010904//EN"
 "http://www.w3.org/TR/2001/REC-SVG-20010904/DTD/svg10.dtd">
<svg version="1.0" xmlns="http://www.w3.org/2000/svg"
 width="30" height="30" viewBox="0 0 512.000000 512.000000"
 preserveAspectRatio="xMidYMid meet">

<g transform="translate(0.000000,512.000000) scale(0.100000,-0.100000)"
fill="#000000" stroke="none">
<path d="M875 4599 c-11 -6 -95 -86 -187 -178 -149 -147 -168 -169 -168 -198
0 -37 285 -617 316 -644 11 -9 113 -47 227 -85 l209 -69 348 -342 c192 -189
353 -343 357 -343 5 0 100 92 212 204 l204 205 -345 349 -346 350 -71 215
c-48 143 -79 221 -94 235 -28 25 -602 312 -625 312 -9 0 -26 -6 -37 -11z"/>
<path d="M3607 4575 c-306 -58 -544 -278 -633 -585 -27 -93 -25 -317 3 -412
l20 -66 -1033 -1033 c-1165 -1165 -1089 -1079 -1088 -1234 0 -133 60 -233 176
-296 58 -32 69 -34 153 -34 166 0 60 -93 1232 1078 l1041 1040 64 -19 c50 -15
93 -19 213 -18 136 0 158 3 235 28 215 70 380 213 475 411 93 194 108 394 44
601 -22 71 -46 94 -98 94 -32 0 -51 -16 -218 -182 l-183 -183 -140 140 -140
140 179 180 c102 102 182 191 186 205 8 34 -8 75 -38 94 -75 50 -314 77 -450
51z"/>
<path d="M2897 2212 l-397 -397 597 -596 c503 -502 608 -602 663 -632 116 -63
234 -85 357 -67 229 35 402 188 468 413 22 75 22 219 0 294 -41 140 -37 136
-679 781 -330 331 -603 602 -606 602 -3 0 -184 -179 -403 -398z"/>
</g>
</svg>
